<svg width="1483" height="416" viewBox="0 0 1483 416" fill="none" xmlns="http://www.w3.org/2000/svg">
<g opacity="0.12">
<path d="M1483 416L1482 416L1482 6.09477e-05L1483 6.10352e-05L1483 416Z" fill="url(#paint0_linear_1056_288)"/>
<path d="M1426 416L1425 416L1425 5.59646e-05L1426 5.60521e-05L1426 416Z" fill="url(#paint1_linear_1056_288)"/>
<path d="M1369 416L1368 416L1368 5.09815e-05L1369 5.1069e-05L1369 416Z" fill="url(#paint2_linear_1056_288)"/>
<path d="M1312 416L1311 416L1311 4.59984e-05L1312 4.60859e-05L1312 416Z" fill="url(#paint3_linear_1056_288)"/>
<path d="M1255 416L1254 416L1254 4.10153e-05L1255 4.11028e-05L1255 416Z" fill="url(#paint4_linear_1056_288)"/>
<path d="M1198 416L1197 416L1197 3.60322e-05L1198 3.61197e-05L1198 416Z" fill="url(#paint5_linear_1056_288)"/>
<path d="M1141 416L1140 416L1140 3.10491e-05L1141 3.11366e-05L1141 416Z" fill="url(#paint6_linear_1056_288)"/>
<path d="M1084 416L1083 416L1083 2.6066e-05L1084 2.61535e-05L1084 416Z" fill="url(#paint7_linear_1056_288)"/>
<path d="M1027 416L1026 416L1026 2.10829e-05L1027 2.11704e-05L1027 416Z" fill="url(#paint8_linear_1056_288)"/>
<path d="M970 416L969 416L969 1.60998e-05L970 1.61873e-05L970 416Z" fill="url(#paint9_linear_1056_288)"/>
<path d="M913 416L912 416L912 1.11168e-05L913 1.12042e-05L913 416Z" fill="url(#paint10_linear_1056_288)"/>
<path d="M856 416L855 416L855 6.13365e-06L856 6.22108e-06L856 416Z" fill="url(#paint11_linear_1056_288)"/>
<path d="M799 416L798 416L798 1.15055e-06L799 1.23798e-06L799 416Z" fill="url(#paint12_linear_1056_288)"/>
<path d="M742 416L741 416L741 -3.83254e-06L742 -3.74512e-06L742 416Z" fill="url(#paint13_linear_1056_288)"/>
<path d="M685 416L684 416L684 -8.81564e-06L685 -8.72822e-06L685 416Z" fill="url(#paint14_linear_1056_288)"/>
<path d="M628 416L627 416L627 -1.37987e-05L628 -1.37113e-05L628 416Z" fill="url(#paint15_linear_1056_288)"/>
<path d="M571 416L570 416L570 -1.87818e-05L571 -1.86944e-05L571 416Z" fill="url(#paint16_linear_1056_288)"/>
<path d="M514 416L513 416L513 -2.37649e-05L514 -2.36775e-05L514 416Z" fill="url(#paint17_linear_1056_288)"/>
<path d="M457 416L456 416L456 -2.8748e-05L457 -2.86606e-05L457 416Z" fill="url(#paint18_linear_1056_288)"/>
<path d="M400 416L399 416L399 -3.37311e-05L400 -3.36437e-05L400 416Z" fill="url(#paint19_linear_1056_288)"/>
<path d="M343 416L342 416L342 -3.87142e-05L343 -3.86268e-05L343 416Z" fill="url(#paint20_linear_1056_288)"/>
<path d="M286 416L285 416L285 -4.36973e-05L286 -4.36099e-05L286 416Z" fill="url(#paint21_linear_1056_288)"/>
<path d="M229 416L228 416L228 -4.86804e-05L229 -4.8593e-05L229 416Z" fill="url(#paint22_linear_1056_288)"/>
<path d="M172 416L171 416L171 -5.36635e-05L172 -5.35761e-05L172 416Z" fill="url(#paint23_linear_1056_288)"/>
<path d="M115 416L114 416L114 -5.86466e-05L115 -5.85592e-05L115 416Z" fill="url(#paint24_linear_1056_288)"/>
<path d="M58 416L57 416L57 -6.36297e-05L58 -6.35423e-05L58 416Z" fill="url(#paint25_linear_1056_288)"/>
<path d="M1 416L0 416L3.63679e-05 -6.86128e-05L1.00004 -6.85254e-05L1 416Z" fill="url(#paint26_linear_1056_288)"/>
</g>
<defs>
<linearGradient id="paint0_linear_1056_288" x1="0.5" y1="416" x2="0.500036" y2="-6.85691e-05" gradientUnits="userSpaceOnUse">
<stop stop-color="white"/>
<stop offset="1" stop-color="white" stop-opacity="0"/>
</linearGradient>
<linearGradient id="paint1_linear_1056_288" x1="0.5" y1="416" x2="0.500036" y2="-6.85691e-05" gradientUnits="userSpaceOnUse">
<stop stop-color="white"/>
<stop offset="1" stop-color="white" stop-opacity="0"/>
</linearGradient>
<linearGradient id="paint2_linear_1056_288" x1="0.5" y1="416" x2="0.500036" y2="-6.85691e-05" gradientUnits="userSpaceOnUse">
<stop stop-color="white"/>
<stop offset="1" stop-color="white" stop-opacity="0"/>
</linearGradient>
<linearGradient id="paint3_linear_1056_288" x1="0.5" y1="416" x2="0.500036" y2="-6.85691e-05" gradientUnits="userSpaceOnUse">
<stop stop-color="white"/>
<stop offset="1" stop-color="white" stop-opacity="0"/>
</linearGradient>
<linearGradient id="paint4_linear_1056_288" x1="0.5" y1="416" x2="0.500036" y2="-6.85691e-05" gradientUnits="userSpaceOnUse">
<stop stop-color="white"/>
<stop offset="1" stop-color="white" stop-opacity="0"/>
</linearGradient>
<linearGradient id="paint5_linear_1056_288" x1="0.5" y1="416" x2="0.500036" y2="-6.85691e-05" gradientUnits="userSpaceOnUse">
<stop stop-color="white"/>
<stop offset="1" stop-color="white" stop-opacity="0"/>
</linearGradient>
<linearGradient id="paint6_linear_1056_288" x1="0.5" y1="416" x2="0.500036" y2="-6.85691e-05" gradientUnits="userSpaceOnUse">
<stop stop-color="white"/>
<stop offset="1" stop-color="white" stop-opacity="0"/>
</linearGradient>
<linearGradient id="paint7_linear_1056_288" x1="0.5" y1="416" x2="0.500036" y2="-6.85691e-05" gradientUnits="userSpaceOnUse">
<stop stop-color="white"/>
<stop offset="1" stop-color="white" stop-opacity="0"/>
</linearGradient>
<linearGradient id="paint8_linear_1056_288" x1="0.5" y1="416" x2="0.500036" y2="-6.85691e-05" gradientUnits="userSpaceOnUse">
<stop stop-color="white"/>
<stop offset="1" stop-color="white" stop-opacity="0"/>
</linearGradient>
<linearGradient id="paint9_linear_1056_288" x1="0.5" y1="416" x2="0.500036" y2="-6.85691e-05" gradientUnits="userSpaceOnUse">
<stop stop-color="white"/>
<stop offset="1" stop-color="white" stop-opacity="0"/>
</linearGradient>
<linearGradient id="paint10_linear_1056_288" x1="0.5" y1="416" x2="0.500036" y2="-6.85691e-05" gradientUnits="userSpaceOnUse">
<stop stop-color="white"/>
<stop offset="1" stop-color="white" stop-opacity="0"/>
</linearGradient>
<linearGradient id="paint11_linear_1056_288" x1="0.5" y1="416" x2="0.500036" y2="-6.85691e-05" gradientUnits="userSpaceOnUse">
<stop stop-color="white"/>
<stop offset="1" stop-color="white" stop-opacity="0"/>
</linearGradient>
<linearGradient id="paint12_linear_1056_288" x1="0.5" y1="416" x2="0.500036" y2="-6.85691e-05" gradientUnits="userSpaceOnUse">
<stop stop-color="white"/>
<stop offset="1" stop-color="white" stop-opacity="0"/>
</linearGradient>
<linearGradient id="paint13_linear_1056_288" x1="0.5" y1="416" x2="0.500036" y2="-6.85691e-05" gradientUnits="userSpaceOnUse">
<stop stop-color="white"/>
<stop offset="1" stop-color="white" stop-opacity="0"/>
</linearGradient>
<linearGradient id="paint14_linear_1056_288" x1="0.5" y1="416" x2="0.500036" y2="-6.85691e-05" gradientUnits="userSpaceOnUse">
<stop stop-color="white"/>
<stop offset="1" stop-color="white" stop-opacity="0"/>
</linearGradient>
<linearGradient id="paint15_linear_1056_288" x1="0.5" y1="416" x2="0.500036" y2="-6.85691e-05" gradientUnits="userSpaceOnUse">
<stop stop-color="white"/>
<stop offset="1" stop-color="white" stop-opacity="0"/>
</linearGradient>
<linearGradient id="paint16_linear_1056_288" x1="0.5" y1="416" x2="0.500036" y2="-6.85691e-05" gradientUnits="userSpaceOnUse">
<stop stop-color="white"/>
<stop offset="1" stop-color="white" stop-opacity="0"/>
</linearGradient>
<linearGradient id="paint17_linear_1056_288" x1="0.5" y1="416" x2="0.500036" y2="-6.85691e-05" gradientUnits="userSpaceOnUse">
<stop stop-color="white"/>
<stop offset="1" stop-color="white" stop-opacity="0"/>
</linearGradient>
<linearGradient id="paint18_linear_1056_288" x1="0.5" y1="416" x2="0.500036" y2="-6.85691e-05" gradientUnits="userSpaceOnUse">
<stop stop-color="white"/>
<stop offset="1" stop-color="white" stop-opacity="0"/>
</linearGradient>
<linearGradient id="paint19_linear_1056_288" x1="0.5" y1="416" x2="0.500036" y2="-6.85691e-05" gradientUnits="userSpaceOnUse">
<stop stop-color="white"/>
<stop offset="1" stop-color="white" stop-opacity="0"/>
</linearGradient>
<linearGradient id="paint20_linear_1056_288" x1="0.5" y1="416" x2="0.500036" y2="-6.85691e-05" gradientUnits="userSpaceOnUse">
<stop stop-color="white"/>
<stop offset="1" stop-color="white" stop-opacity="0"/>
</linearGradient>
<linearGradient id="paint21_linear_1056_288" x1="0.5" y1="416" x2="0.500036" y2="-6.85691e-05" gradientUnits="userSpaceOnUse">
<stop stop-color="white"/>
<stop offset="1" stop-color="white" stop-opacity="0"/>
</linearGradient>
<linearGradient id="paint22_linear_1056_288" x1="0.5" y1="416" x2="0.500036" y2="-6.85691e-05" gradientUnits="userSpaceOnUse">
<stop stop-color="white"/>
<stop offset="1" stop-color="white" stop-opacity="0"/>
</linearGradient>
<linearGradient id="paint23_linear_1056_288" x1="0.5" y1="416" x2="0.500036" y2="-6.85691e-05" gradientUnits="userSpaceOnUse">
<stop stop-color="white"/>
<stop offset="1" stop-color="white" stop-opacity="0"/>
</linearGradient>
<linearGradient id="paint24_linear_1056_288" x1="0.5" y1="416" x2="0.500036" y2="-6.85691e-05" gradientUnits="userSpaceOnUse">
<stop stop-color="white"/>
<stop offset="1" stop-color="white" stop-opacity="0"/>
</linearGradient>
<linearGradient id="paint25_linear_1056_288" x1="0.5" y1="416" x2="0.500036" y2="-6.85691e-05" gradientUnits="userSpaceOnUse">
<stop stop-color="white"/>
<stop offset="1" stop-color="white" stop-opacity="0"/>
</linearGradient>
<linearGradient id="paint26_linear_1056_288" x1="0.5" y1="416" x2="0.500036" y2="-6.85691e-05" gradientUnits="userSpaceOnUse">
<stop stop-color="white"/>
<stop offset="1" stop-color="white" stop-opacity="0"/>
</linearGradient>
</defs>
</svg>
