<svg width="1483" height="466" viewBox="0 0 1483 466" fill="none" xmlns="http://www.w3.org/2000/svg">
<g opacity="0.12">
<path d="M0 0H1V466H0V0Z" fill="url(#paint0_linear_1056_96)"/>
<path d="M57 0H58V466H57V0Z" fill="url(#paint1_linear_1056_96)"/>
<path d="M114 0H115V466H114V0Z" fill="url(#paint2_linear_1056_96)"/>
<path d="M171 0H172V466H171V0Z" fill="url(#paint3_linear_1056_96)"/>
<path d="M228 0H229V466H228V0Z" fill="url(#paint4_linear_1056_96)"/>
<path d="M285 0H286V466H285V0Z" fill="url(#paint5_linear_1056_96)"/>
<path d="M342 0H343V466H342V0Z" fill="url(#paint6_linear_1056_96)"/>
<path d="M399 0H400V466H399V0Z" fill="url(#paint7_linear_1056_96)"/>
<path d="M456 0H457V466H456V0Z" fill="url(#paint8_linear_1056_96)"/>
<path d="M513 0H514V466H513V0Z" fill="url(#paint9_linear_1056_96)"/>
<path d="M570 0H571V466H570V0Z" fill="url(#paint10_linear_1056_96)"/>
<path d="M627 0H628V466H627V0Z" fill="url(#paint11_linear_1056_96)"/>
<path d="M684 0H685V466H684V0Z" fill="url(#paint12_linear_1056_96)"/>
<path d="M741 0H742V466H741V0Z" fill="url(#paint13_linear_1056_96)"/>
<path d="M798 0H799V466H798V0Z" fill="url(#paint14_linear_1056_96)"/>
<path d="M855 0H856V466H855V0Z" fill="url(#paint15_linear_1056_96)"/>
<path d="M912 0H913V466H912V0Z" fill="url(#paint16_linear_1056_96)"/>
<path d="M969 0H970V466H969V0Z" fill="url(#paint17_linear_1056_96)"/>
<path d="M1026 0H1027V466H1026V0Z" fill="url(#paint18_linear_1056_96)"/>
<path d="M1083 0H1084V466H1083V0Z" fill="url(#paint19_linear_1056_96)"/>
<path d="M1140 0H1141V466H1140V0Z" fill="url(#paint20_linear_1056_96)"/>
<path d="M1197 0H1198V466H1197V0Z" fill="url(#paint21_linear_1056_96)"/>
<path d="M1254 0H1255V466H1254V0Z" fill="url(#paint22_linear_1056_96)"/>
<path d="M1311 0H1312V466H1311V0Z" fill="url(#paint23_linear_1056_96)"/>
<path d="M1368 0H1369V466H1368V0Z" fill="url(#paint24_linear_1056_96)"/>
<path d="M1425 0H1426V466H1425V0Z" fill="url(#paint25_linear_1056_96)"/>
<path d="M1482 0H1483V466H1482V0Z" fill="url(#paint26_linear_1056_96)"/>
</g>
<defs>
<linearGradient id="paint0_linear_1056_96" x1="1482.5" y1="0" x2="1482.5" y2="466" gradientUnits="userSpaceOnUse">
<stop stop-color="white"/>
<stop offset="1" stop-color="white" stop-opacity="0"/>
</linearGradient>
<linearGradient id="paint1_linear_1056_96" x1="1482.5" y1="0" x2="1482.5" y2="466" gradientUnits="userSpaceOnUse">
<stop stop-color="white"/>
<stop offset="1" stop-color="white" stop-opacity="0"/>
</linearGradient>
<linearGradient id="paint2_linear_1056_96" x1="1482.5" y1="0" x2="1482.5" y2="466" gradientUnits="userSpaceOnUse">
<stop stop-color="white"/>
<stop offset="1" stop-color="white" stop-opacity="0"/>
</linearGradient>
<linearGradient id="paint3_linear_1056_96" x1="1482.5" y1="0" x2="1482.5" y2="466" gradientUnits="userSpaceOnUse">
<stop stop-color="white"/>
<stop offset="1" stop-color="white" stop-opacity="0"/>
</linearGradient>
<linearGradient id="paint4_linear_1056_96" x1="1482.5" y1="0" x2="1482.5" y2="466" gradientUnits="userSpaceOnUse">
<stop stop-color="white"/>
<stop offset="1" stop-color="white" stop-opacity="0"/>
</linearGradient>
<linearGradient id="paint5_linear_1056_96" x1="1482.5" y1="0" x2="1482.5" y2="466" gradientUnits="userSpaceOnUse">
<stop stop-color="white"/>
<stop offset="1" stop-color="white" stop-opacity="0"/>
</linearGradient>
<linearGradient id="paint6_linear_1056_96" x1="1482.5" y1="0" x2="1482.5" y2="466" gradientUnits="userSpaceOnUse">
<stop stop-color="white"/>
<stop offset="1" stop-color="white" stop-opacity="0"/>
</linearGradient>
<linearGradient id="paint7_linear_1056_96" x1="1482.5" y1="0" x2="1482.5" y2="466" gradientUnits="userSpaceOnUse">
<stop stop-color="white"/>
<stop offset="1" stop-color="white" stop-opacity="0"/>
</linearGradient>
<linearGradient id="paint8_linear_1056_96" x1="1482.5" y1="0" x2="1482.5" y2="466" gradientUnits="userSpaceOnUse">
<stop stop-color="white"/>
<stop offset="1" stop-color="white" stop-opacity="0"/>
</linearGradient>
<linearGradient id="paint9_linear_1056_96" x1="1482.5" y1="0" x2="1482.5" y2="466" gradientUnits="userSpaceOnUse">
<stop stop-color="white"/>
<stop offset="1" stop-color="white" stop-opacity="0"/>
</linearGradient>
<linearGradient id="paint10_linear_1056_96" x1="1482.5" y1="0" x2="1482.5" y2="466" gradientUnits="userSpaceOnUse">
<stop stop-color="white"/>
<stop offset="1" stop-color="white" stop-opacity="0"/>
</linearGradient>
<linearGradient id="paint11_linear_1056_96" x1="1482.5" y1="0" x2="1482.5" y2="466" gradientUnits="userSpaceOnUse">
<stop stop-color="white"/>
<stop offset="1" stop-color="white" stop-opacity="0"/>
</linearGradient>
<linearGradient id="paint12_linear_1056_96" x1="1482.5" y1="0" x2="1482.5" y2="466" gradientUnits="userSpaceOnUse">
<stop stop-color="white"/>
<stop offset="1" stop-color="white" stop-opacity="0"/>
</linearGradient>
<linearGradient id="paint13_linear_1056_96" x1="1482.5" y1="0" x2="1482.5" y2="466" gradientUnits="userSpaceOnUse">
<stop stop-color="white"/>
<stop offset="1" stop-color="white" stop-opacity="0"/>
</linearGradient>
<linearGradient id="paint14_linear_1056_96" x1="1482.5" y1="0" x2="1482.5" y2="466" gradientUnits="userSpaceOnUse">
<stop stop-color="white"/>
<stop offset="1" stop-color="white" stop-opacity="0"/>
</linearGradient>
<linearGradient id="paint15_linear_1056_96" x1="1482.5" y1="0" x2="1482.5" y2="466" gradientUnits="userSpaceOnUse">
<stop stop-color="white"/>
<stop offset="1" stop-color="white" stop-opacity="0"/>
</linearGradient>
<linearGradient id="paint16_linear_1056_96" x1="1482.5" y1="0" x2="1482.5" y2="466" gradientUnits="userSpaceOnUse">
<stop stop-color="white"/>
<stop offset="1" stop-color="white" stop-opacity="0"/>
</linearGradient>
<linearGradient id="paint17_linear_1056_96" x1="1482.5" y1="0" x2="1482.5" y2="466" gradientUnits="userSpaceOnUse">
<stop stop-color="white"/>
<stop offset="1" stop-color="white" stop-opacity="0"/>
</linearGradient>
<linearGradient id="paint18_linear_1056_96" x1="1482.5" y1="0" x2="1482.5" y2="466" gradientUnits="userSpaceOnUse">
<stop stop-color="white"/>
<stop offset="1" stop-color="white" stop-opacity="0"/>
</linearGradient>
<linearGradient id="paint19_linear_1056_96" x1="1482.5" y1="0" x2="1482.5" y2="466" gradientUnits="userSpaceOnUse">
<stop stop-color="white"/>
<stop offset="1" stop-color="white" stop-opacity="0"/>
</linearGradient>
<linearGradient id="paint20_linear_1056_96" x1="1482.5" y1="0" x2="1482.5" y2="466" gradientUnits="userSpaceOnUse">
<stop stop-color="white"/>
<stop offset="1" stop-color="white" stop-opacity="0"/>
</linearGradient>
<linearGradient id="paint21_linear_1056_96" x1="1482.5" y1="0" x2="1482.5" y2="466" gradientUnits="userSpaceOnUse">
<stop stop-color="white"/>
<stop offset="1" stop-color="white" stop-opacity="0"/>
</linearGradient>
<linearGradient id="paint22_linear_1056_96" x1="1482.5" y1="0" x2="1482.5" y2="466" gradientUnits="userSpaceOnUse">
<stop stop-color="white"/>
<stop offset="1" stop-color="white" stop-opacity="0"/>
</linearGradient>
<linearGradient id="paint23_linear_1056_96" x1="1482.5" y1="0" x2="1482.5" y2="466" gradientUnits="userSpaceOnUse">
<stop stop-color="white"/>
<stop offset="1" stop-color="white" stop-opacity="0"/>
</linearGradient>
<linearGradient id="paint24_linear_1056_96" x1="1482.5" y1="0" x2="1482.5" y2="466" gradientUnits="userSpaceOnUse">
<stop stop-color="white"/>
<stop offset="1" stop-color="white" stop-opacity="0"/>
</linearGradient>
<linearGradient id="paint25_linear_1056_96" x1="1482.5" y1="0" x2="1482.5" y2="466" gradientUnits="userSpaceOnUse">
<stop stop-color="white"/>
<stop offset="1" stop-color="white" stop-opacity="0"/>
</linearGradient>
<linearGradient id="paint26_linear_1056_96" x1="1482.5" y1="0" x2="1482.5" y2="466" gradientUnits="userSpaceOnUse">
<stop stop-color="white"/>
<stop offset="1" stop-color="white" stop-opacity="0"/>
</linearGradient>
</defs>
</svg>
